<svg width="24" height="16" viewBox="0 0 24 16" fill="none" xmlns="http://www.w3.org/2000/svg">
<path d="M12.1382 7.56094L4.73778 0.180933C4.49531 -0.0607219 4.10275 -0.0603156 3.86069 0.182183C3.61881 0.424651 3.61944 0.817431 3.86194 1.05927L10.8219 8.00003L3.86169 14.9407C3.61922 15.1826 3.61859 15.5752 3.86044 15.8177C3.98178 15.9392 4.14075 16 4.29972 16C4.45828 16 4.61662 15.9396 4.73774 15.8189L12.1382 8.43909C12.255 8.3229 12.3206 8.16478 12.3206 8.00003C12.3206 7.83528 12.2548 7.67734 12.1382 7.56094Z" fill="#2E2E54"/>
<path d="M20.1382 7.56094L12.7378 0.180933C12.4953 -0.0607219 12.1027 -0.0603156 11.8607 0.182183C11.6188 0.424651 11.6194 0.817431 11.8619 1.05927L18.8219 8.00003L11.8617 14.9407C11.6192 15.1826 11.6186 15.5752 11.8604 15.8177C11.9818 15.9392 12.1407 16 12.2997 16C12.4583 16 12.6166 15.9396 12.7377 15.8189L20.1382 8.43909C20.255 8.3229 20.3206 8.16478 20.3206 8.00003C20.3206 7.83528 20.2548 7.67734 20.1382 7.56094Z" fill="#2E2E54"/>
</svg>
