<svg width="16" height="16" viewBox="0 0 16 16" fill="none" xmlns="http://www.w3.org/2000/svg">
<path d="M5.99967 2C6.74618 2 7.22164 2.31693 7.69889 2.91895C7.73073 2.95912 7.8729 3.14413 7.90788 3.1875C8.01224 3.31687 8.03432 3.33269 8.00163 3.33301H12.6667C13.403 3.33301 13.9997 3.93061 13.9997 4.66699V5.33301L14.1364 5.33984C14.8087 5.40814 15.3337 5.97665 15.3337 6.66699L15.3171 6.81152L13.9977 12.752C13.9538 13.4486 13.3744 14 12.6667 14H1.99967L1.86393 13.9932C1.2362 13.9295 0.737127 13.4305 0.673502 12.8027L0.666666 12.667V3.33301C0.666842 2.59689 1.26355 2.00018 1.99967 2H5.99967ZM3.31706 6.81152L2.01628 12.667H12.6667L12.6823 12.5225L13.984 6.66699H3.3571C3.34669 6.70001 3.33281 6.74804 3.31706 6.81152ZM1.99967 6.59375L2.01921 6.50684C2.20659 5.74757 2.55594 5.33301 3.33366 5.33301H12.6667V4.66699H7.99674C7.51803 4.66443 7.20597 4.43991 6.87077 4.02441C6.8245 3.96706 6.67682 3.7759 6.65397 3.74707C6.40446 3.43235 6.25572 3.33301 5.99967 3.33301H1.99967V6.59375Z" fill="#D2D4D8"/>
</svg>
