<svg width="12" height="12" viewBox="0 0 12 12" fill="none" xmlns="http://www.w3.org/2000/svg">
<path d="M4.23223 5.64622L2.81801 7.06043C2.23223 7.64622 2.23223 8.59597 2.81801 9.18175C3.4038 9.76754 4.35355 9.76754 4.93933 9.18175L6.35355 7.76754L7.06065 8.47465L5.64644 9.88886C4.67013 10.8652 3.08722 10.8652 2.11091 9.88886C1.1346 8.91255 1.1346 7.32964 2.11091 6.35333L3.52512 4.93911L4.23223 5.64622ZM6.35355 2.11069C7.32986 1.13438 8.91277 1.13438 9.88908 2.11069C10.8654 3.087 10.8654 4.66991 9.88908 5.64622L8.47487 7.06043L7.76776 6.35333L9.18197 4.93911C9.76776 4.35333 9.76776 3.40358 9.18197 2.81779C8.59619 2.23201 7.64644 2.23201 7.06065 2.81779L5.64644 4.23201L4.93933 3.5249L6.35355 2.11069ZM8.12131 4.58556L4.58578 8.12109L3.87867 7.41399L7.41421 3.87845L8.12131 4.58556Z" fill="#2E2E54"/>
</svg>
