<svg width="14" height="14" viewBox="0 0 14 14" fill="none" xmlns="http://www.w3.org/2000/svg">
<path d="M7.00037 0.333496C10.6821 0.333672 13.6674 3.3187 13.6674 7.00049C13.6673 8.14991 13.3751 9.2583 12.8285 10.2397L13.0638 13.064L10.2396 12.8286C9.25818 13.3752 8.14979 13.6674 7.00037 13.6675C3.31858 13.6675 0.33355 10.6822 0.333374 7.00049C0.333374 3.31859 3.31847 0.333496 7.00037 0.333496ZM7.00037 1.66748C4.05485 1.66748 1.66736 4.05497 1.66736 7.00049C1.66753 9.94586 4.05496 12.3335 7.00037 12.3335C7.98115 12.3334 8.92199 12.0695 9.74353 11.5757L9.9281 11.4644L11.6039 11.604L11.4642 9.92822L11.5756 9.74365C12.0693 8.92211 12.3333 7.98127 12.3334 7.00049C12.3334 4.05508 9.94573 1.66766 7.00037 1.66748ZM7.00037 8.99951C7.36856 8.99957 7.66725 9.29746 7.66736 9.66553C7.66736 10.0337 7.36863 10.3325 7.00037 10.3325C6.63206 10.3325 6.33337 10.0337 6.33337 9.66553C6.33348 9.29743 6.63212 8.99951 7.00037 8.99951ZM7.00037 3.6665C8.10468 3.66668 9.00019 4.56219 9.00037 5.6665C9.00037 6.35955 8.64386 6.99294 8.0697 7.35693C7.90117 7.46378 7.88059 7.47781 7.81384 7.53076C7.70442 7.61758 7.66638 7.67212 7.66638 7.6665V8.3335H6.33337V7.6665C6.33349 7.17518 6.58841 6.8003 6.98474 6.48584C7.10398 6.39125 7.14019 6.36767 7.35583 6.23096C7.54822 6.109 7.66638 5.89805 7.66638 5.6665C7.66621 5.29857 7.3683 5.00066 7.00037 5.00049C6.63228 5.00049 6.33355 5.29846 6.33337 5.6665H5.00037C5.00054 4.56208 5.89591 3.6665 7.00037 3.6665Z" fill="white"/>
</svg>
