<svg width="16" height="16" viewBox="0 0 16 16" fill="none" xmlns="http://www.w3.org/2000/svg">
<g clip-path="url(#clip0_1643_1803)">
<path d="M14.6458 5.3335H8.6875C8.50516 5.3335 8.3303 5.40373 8.20136 5.52876C8.07243 5.65378 8 5.82335 8 6.00016C8 6.17697 8.07243 6.34654 8.20136 6.47157C8.3303 6.59659 8.50516 6.66683 8.6875 6.66683H14.6458C14.8282 6.66683 15.003 6.59659 15.132 6.47157C15.2609 6.34654 15.3333 6.17697 15.3333 6.00016C15.3333 5.82335 15.2609 5.65378 15.132 5.52876C15.003 5.40373 14.8282 5.3335 14.6458 5.3335Z" fill="#D2D4D8"/>
<path d="M14.6133 1.3335H10.0533C9.86238 1.3335 9.67924 1.40373 9.54422 1.52876C9.40919 1.65378 9.33333 1.82335 9.33333 2.00016C9.33333 2.17697 9.40919 2.34654 9.54422 2.47157C9.67924 2.59659 9.86238 2.66683 10.0533 2.66683H14.6133C14.8043 2.66683 14.9874 2.59659 15.1224 2.47157C15.2575 2.34654 15.3333 2.17697 15.3333 2.00016C15.3333 1.82335 15.2575 1.65378 15.1224 1.52876C14.9874 1.40373 14.8043 1.3335 14.6133 1.3335Z" fill="#D2D4D8"/>
<path d="M7.29032 9.3335H1.37634C1.18813 9.3335 1.00762 9.40373 0.874526 9.52876C0.741435 9.65378 0.666666 9.82335 0.666666 10.0002C0.666666 10.177 0.741435 10.3465 0.874526 10.4716C1.00762 10.5966 1.18813 10.6668 1.37634 10.6668H7.29032C7.47854 10.6668 7.65905 10.5966 7.79214 10.4716C7.92523 10.3465 8 10.177 8 10.0002C8 9.82335 7.92523 9.65378 7.79214 9.52876C7.65905 9.40373 7.47854 9.3335 7.29032 9.3335Z" fill="#D2D4D8"/>
<path d="M7.29032 14.6668C7.47854 14.6668 7.65905 14.5966 7.79214 14.4716C7.92523 14.3465 8 14.177 8 14.0002C8 13.8234 7.92523 13.6538 7.79214 13.5288C7.65905 13.4037 7.47854 13.3335 7.29032 13.3335H1.37634C1.18813 13.3335 1.00762 13.4037 0.874526 13.5288C0.741435 13.6538 0.666666 13.8234 0.666666 14.0002C0.666666 14.177 0.741435 14.3465 0.874526 14.4716C1.00762 14.5966 1.18813 14.6668 1.37634 14.6668H7.29032Z" fill="#D2D4D8"/>
<path d="M10.1088 14.3322C10.1676 14.4237 10.2462 14.5009 10.3388 14.5581C10.4315 14.6153 10.5358 14.651 10.6441 14.6627C10.7524 14.6743 10.862 14.6615 10.9647 14.6253C11.0674 14.589 11.1606 14.5303 11.2376 14.4533L12.6649 13.0264L14.0922 14.4509C14.1678 14.5266 14.2591 14.5848 14.3598 14.6212C14.4604 14.6577 14.5679 14.6716 14.6745 14.6618C14.7811 14.6521 14.8843 14.6191 14.9767 14.565C15.069 14.511 15.1483 14.4372 15.2089 14.3491C15.3046 14.1985 15.3446 14.0192 15.322 13.8423C15.2994 13.6654 15.2156 13.5019 15.0851 13.3801L13.6966 11.9992L15.1045 10.5941C15.2276 10.4767 15.3063 10.3206 15.3276 10.152C15.3488 9.98344 15.3112 9.81273 15.221 9.66861C15.1622 9.57707 15.0836 9.49986 14.991 9.44266C14.8984 9.38546 14.794 9.34973 14.6857 9.33811C14.5774 9.32648 14.4679 9.33926 14.3651 9.3755C14.2624 9.41173 14.1692 9.4705 14.0922 9.54748L12.6649 10.972L11.2376 9.54748C11.162 9.47176 11.0707 9.41359 10.97 9.37713C10.8694 9.34066 10.7619 9.32679 10.6553 9.33651C10.5487 9.34622 10.4455 9.37928 10.3531 9.43334C10.2608 9.48739 10.1815 9.56111 10.1209 9.64923C10.0252 9.79985 9.98524 9.9791 10.0078 10.156C10.0304 10.3329 10.1142 10.4964 10.2447 10.6183L11.6357 11.9992L10.2375 13.4043C10.1119 13.5203 10.0304 13.6761 10.007 13.8453C9.98353 14.0144 10.0195 14.1865 10.1088 14.3322Z" fill="#D2D4D8"/>
<path d="M0.865473 4.74408L2.17165 6.22356C2.42257 6.5074 2.7627 6.66683 3.11732 6.66683C3.47195 6.66683 3.81208 6.5074 4.063 6.22356L7.09757 2.78636C7.17035 2.70955 7.22872 2.61692 7.26921 2.514C7.30969 2.41108 7.33146 2.29998 7.33322 2.18732C7.33497 2.07466 7.31668 1.96276 7.27942 1.85829C7.24217 1.75382 7.18671 1.65891 7.11637 1.57924C7.04604 1.49957 6.96225 1.43676 6.87001 1.39456C6.77778 1.35236 6.67899 1.33164 6.57953 1.33363C6.48007 1.33561 6.38198 1.36027 6.29111 1.40613C6.20025 1.45199 6.11847 1.5181 6.05066 1.60054L3.11732 4.92307L1.91239 3.55826C1.77197 3.41005 1.58624 3.32937 1.39434 3.3332C1.20244 3.33704 1.01934 3.42509 0.883624 3.57882C0.747907 3.73254 0.670167 3.93993 0.666781 4.1573C0.663396 4.37466 0.734628 4.58503 0.865473 4.74408Z" fill="#D2D4D8"/>
</g>
<defs>
<clipPath id="clip0_1643_1803">
<rect width="16" height="16" fill="white"/>
</clipPath>
</defs>
</svg>
