<svg width="23" height="23" viewBox="0 0 23 23" fill="none" xmlns="http://www.w3.org/2000/svg">
<path fill-rule="evenodd" clip-rule="evenodd" d="M8.62467 3.8335H20.1247C21.1832 3.8335 22.0413 4.69162 22.0413 5.75016V18.2085C22.0413 19.267 21.1832 20.1252 20.1247 20.1252H8.62467H6.70801H2.87467C1.81613 20.1252 0.958008 19.267 0.958008 18.2085V5.75016C0.958008 4.69162 1.81613 3.8335 2.87467 3.8335H6.70801H8.62467ZM6.70801 5.75016H2.87467V8.62516H6.70801V5.75016ZM8.62467 8.62516V5.75016H20.1247V8.62516H8.62467ZM6.70801 10.5418H2.87467V13.4168H6.70801V10.5418ZM8.62467 13.4168V10.5418H20.1247V13.4168H8.62467ZM6.70801 15.3335H2.87467V18.2085H6.70801V15.3335ZM8.62467 18.2085V15.3335H20.1247V18.2085H8.62467Z" fill="white"/>
</svg>
