<svg width="12" height="12" viewBox="0 0 12 12" fill="none" xmlns="http://www.w3.org/2000/svg">
<path fill-rule="evenodd" clip-rule="evenodd" d="M11 5.99951C11 5.15827 10.4348 4.49951 9.5 4.49951H7.96349L7.9774 4.46165C7.9913 4.42406 8.03046 4.32083 8.0685 4.22057L8.06855 4.22043L8.06873 4.21997C8.10231 4.13145 8.13497 4.04537 8.14854 4.00896C8.24361 3.75379 8.31298 3.54819 8.36911 3.34458C8.45395 3.03683 8.5 2.75957 8.5 2.49951C8.5 1.76351 8.04593 1.30637 7.37414 1.11075C7.07114 1.02253 6.8074 0.999466 6.5 0.999512H6.26025L6.11014 1.18645C5.94056 1.39763 5.60751 1.77821 5.22353 2.21699L5.22352 2.21699L5.2235 2.21701C4.51513 3.02647 3.63345 4.03396 3.28518 4.54121C3.19481 4.51437 3.09909 4.49996 3 4.49996H2C1.44772 4.49996 1 4.94767 1 5.49996V9.99996C1 10.5522 1.44772 11 2 11H3C3.34356 11 3.64666 10.8267 3.82668 10.5628C3.97837 10.6609 4.14761 10.7428 4.33156 10.8086C4.75272 10.9593 5.17042 11.0056 5.5172 10.9992L9 10.9995C10.3776 10.9995 11 8.9713 11 5.99951ZM4.66844 9.86705C4.22598 9.70875 4 9.45063 4 8.99951V5.49996V5.49951C4 5.37941 4.02222 5.27307 4.07086 5.1595C4.15823 4.95551 4.95097 4.05108 5.70234 3.19385L5.7024 3.19378L5.70248 3.19368C6.09022 2.75132 6.46693 2.32153 6.72998 2.00708C6.8557 2.01651 6.97419 2.03583 7.09457 2.07088C7.38109 2.15431 7.5 2.27403 7.5 2.49951C7.5 2.6578 7.46797 2.85067 7.40507 3.07881C7.35807 3.2493 7.29721 3.4297 7.21146 3.65984C7.19932 3.69244 7.16905 3.77222 7.13683 3.85713L7.13663 3.85765L7.13657 3.85783L7.13646 3.8581C7.09717 3.96167 7.05507 4.07264 7.03948 4.11479C6.97446 4.2906 6.93163 4.42004 6.90233 4.53767C6.77777 5.03769 6.90273 5.49951 7.5 5.49951H9.5C9.84561 5.49951 10 5.67946 10 5.99951C10 8.39488 9.50756 9.99951 9 9.99951H5.5L5.48153 9.99982C5.26269 10.0037 4.95531 9.96969 4.66844 9.86705ZM2 9.99996V5.49996H3V9.99996H2Z" fill="white"/>
</svg>
