<svg width="16" height="16" viewBox="0 0 16 16" fill="none" xmlns="http://www.w3.org/2000/svg">
<path d="M10.0003 0.666504C10.7364 0.66668 11.3332 1.26339 11.3333 1.99951V2.6665H13.3333C14.0695 2.66668 14.6671 3.26339 14.6673 3.99951V5.33252C14.6673 6.06879 14.0696 6.66633 13.3333 6.6665H13.2806L12.6673 13.9995C12.6673 14.7358 12.0696 15.3323 11.3333 15.3325H4.66732C3.9311 15.3325 3.33414 14.736 3.33626 14.0552L2.72005 6.6665H2.66732C1.93094 6.6665 1.33333 6.0689 1.33333 5.33252V3.99951C1.33351 3.26328 1.93105 2.6665 2.66732 2.6665H4.66732V1.99951C4.66749 1.26328 5.26406 0.666504 6.00033 0.666504H10.0003ZM4.66732 13.9995H11.3333L11.3363 13.9438L11.9427 6.6665H4.05794L4.66732 13.9995ZM2.66732 5.33252H13.3333V3.99951H2.66732V5.33252ZM6.00033 2.6665H10.0003V1.99951H6.00033V2.6665Z" fill="#D2D4D8"/>
</svg>
