<svg width="16" height="16" viewBox="0 0 16 16" fill="none" xmlns="http://www.w3.org/2000/svg">
<path d="M7.99967 0.666504C12.0497 0.666504 15.3325 3.94957 15.3327 7.99951C15.3327 12.0496 12.0498 15.3325 7.99967 15.3325C3.94974 15.3323 0.666666 12.0495 0.666666 7.99951C0.666842 3.94968 3.94984 0.66668 7.99967 0.666504ZM7.99967 11.3335C5.62182 11.3335 4.22063 11.7909 4.02409 12.4917C5.08271 13.4294 6.47426 13.9994 7.99967 13.9995C9.52478 13.9995 10.9157 13.429 11.9743 12.4917C11.7773 11.7911 10.3772 11.3335 7.99967 11.3335ZM7.99967 1.99951C4.68622 1.99969 1.99985 4.68606 1.99967 7.99951C1.99967 9.2687 2.39557 10.4451 3.06803 11.4146C3.81898 10.4247 5.58153 9.99955 7.99967 9.99951C10.4177 9.99951 12.1802 10.4249 12.9313 11.4146C13.6039 10.4451 13.9997 9.26883 13.9997 7.99951C13.9995 4.68595 11.3133 1.99951 7.99967 1.99951ZM7.99967 3.99951C9.60895 3.99951 10.6664 5.2806 10.6667 6.79932C10.6667 8.98573 9.4784 9.99951 7.99967 9.99951C6.50714 9.99936 5.33279 8.95103 5.33268 6.6665C5.33283 5.1706 6.38604 3.99967 7.99967 3.99951ZM7.99967 5.33252C7.15582 5.33266 6.6668 5.87733 6.66667 6.6665C6.66674 8.17888 7.21205 8.66637 7.99967 8.6665C8.78481 8.6665 9.33268 8.19824 9.33268 6.79932C9.33246 5.96652 8.80994 5.33252 7.99967 5.33252Z" fill="#D2D4D8"/>
</svg>
