<svg width="16" height="16" viewBox="0 0 16 16" fill="none" xmlns="http://www.w3.org/2000/svg">
<path d="M7.99967 0.666504C12.0497 0.666504 15.3325 3.94957 15.3327 7.99951C15.3327 12.0496 12.0498 15.3325 7.99967 15.3325C3.94974 15.3323 0.666666 12.0495 0.666666 7.99951C0.666842 3.94968 3.94984 0.66668 7.99967 0.666504ZM7.99967 1.99951C4.68622 1.99969 1.99985 4.68606 1.99967 7.99951C1.99967 11.3131 4.68611 13.9993 7.99967 13.9995C11.3134 13.9995 13.9997 11.3132 13.9997 7.99951C13.9995 4.68595 11.3133 1.99951 7.99967 1.99951ZM11.1383 6.47119L6.66667 10.9429L4.19499 8.47119L5.13835 7.52881L6.66667 9.05713L10.195 5.52881L11.1383 6.47119Z" fill="#D2D4D8"/>
</svg>
